<svg width="1em" height="1em" viewBox="0 0 40 41" fill="none" xmlns="http://www.w3.org/2000/svg">
	<path d="M9.25743 14.9554C6.38664 14.9554 4.05941 12.6282 4.05941 9.75743L4.05941 4.55941H9.25743C12.1282 4.55941 14.4554 6.88664 14.4554 9.75743V11.5396H18.5149V9.75743C18.5149 4.64469 14.3702 0.5 9.25743 0.5L9.15633 0.500541L0 0.549505L2.94852e-07 9.75743C2.33883e-07 14.8702 4.14469 19.0149 9.25743 19.0149L18.5149 19.0149V14.9554H9.25743Z" fill="white" />
	<path d="M9.25743 36.4406C12.1282 36.4406 14.4554 34.1134 14.4554 31.2426V21.9851H18.5149L18.5149 31.2426C18.5149 36.3553 14.3702 40.5 9.25743 40.5L0.0495047 40.5L0.000541436 31.3437L5.89113e-07 31.2426C1.03608e-06 26.1298 4.14469 21.9851 9.25743 21.9851L11.0396 21.9851V26.0446H9.25743C6.38664 26.0446 4.05941 28.3718 4.05941 31.2426L4.05941 36.4406H9.25743Z" fill="white" />
	<path d="M35.9406 31.2426C35.9406 28.3718 33.6134 26.0446 30.7426 26.0446H21.4851V21.9851H30.7426C35.8553 21.9851 40 26.1298 40 31.2426V40.4505L30.8437 40.4995L30.7426 40.5C25.6298 40.5 21.4851 36.3553 21.4851 31.2426V29.4604H25.5446V31.2426C25.5446 34.1134 27.8718 36.4406 30.7426 36.4406H35.9406V31.2426Z" fill="white" />
	<path d="M30.7426 4.55941C27.8718 4.55941 25.5446 6.88664 25.5446 9.75743V19.0149H21.4852L21.4851 9.75743C21.4851 4.64469 25.6298 0.5 30.7426 0.5L39.9505 0.5L39.9995 9.65633L40 9.75743C40 14.8702 35.8553 19.0149 30.7426 19.0149H28.9604V14.9554H30.7426C33.6134 14.9554 35.9406 12.6282 35.9406 9.75743V4.55941L30.7426 4.55941Z" fill="white" />
</svg>
