<svg width="32" height="32" viewBox="0 0 32 32" fill="none" xmlns="http://www.w3.org/2000/svg"><circle cx="16" cy="16" r="16" fill="#fff"/><g opacity=".3"><path d="M16.04 3.512v17.216l7.65-4.522-7.65-12.694Z" fill="#343434"/><path d="M16.04 3.512 8.39 16.206l7.65 4.522V3.512Z" fill="#8C8C8C"/><path d="M16.04 22.176v6.26l7.655-10.78-7.655 4.52Z" fill="#3C3C3B"/><path d="M16.04 28.437v-6.26l-7.65-4.52 7.65 10.78Z" fill="#8C8C8C"/><path d="m16.04 20.728 7.65-4.522-7.65-3.478v8Z" fill="#141414"/><path d="m8.39 16.206 7.65 4.522v-8l-7.65 3.478Z" fill="#393939"/></g><path d="M12.714 12.429a2.717 2.717 0 0 1 2.715-2.715h1.357A2.717 2.717 0 0 1 19.5 12.43v.152c0 .925-.47 1.786-1.247 2.282l-1.79 1.15a3.73 3.73 0 0 0-1.713 3.138v.063c0 .751.607 1.357 1.357 1.357s1.357-.606 1.357-1.357v-.06c0-.347.178-.67.467-.856l1.79-1.15a5.435 5.435 0 0 0 2.493-4.567v-.152A5.428 5.428 0 0 0 16.786 7h-1.357A5.428 5.428 0 0 0 10 12.429a1.356 1.356 0 1 0 2.714 0ZM16.107 26a1.696 1.696 0 1 0 0-3.392 1.696 1.696 0 0 0 0 3.392Z" fill="#111"/></svg>
